<svg xmlns="http://www.w3.org/2000/svg">
	<symbol id="social-tg" viewBox="0 0 32 32">
	<path d="M16 2.66675C8.63999 2.66675 2.66666 8.64008 2.66666 16.0001C2.66666 23.3601 8.63999 29.3334 16 29.3334C23.36 29.3334 29.3333 23.3601 29.3333 16.0001C29.3333 8.64008 23.36 2.66675 16 2.66675ZM22.1867 11.7334C21.9867 13.8401 21.12 18.9601 20.68 21.3201C20.4933 22.3201 20.12 22.6534 19.7733 22.6934C19 22.7601 18.4133 22.1868 17.6667 21.6934C16.4933 20.9201 15.8267 20.4401 14.6933 19.6934C13.3733 18.8268 14.2267 18.3468 14.9867 17.5734C15.1867 17.3734 18.6 14.2668 18.6667 13.9867C18.6759 13.9443 18.6747 13.9003 18.6631 13.8585C18.6515 13.8167 18.6298 13.7783 18.6 13.7468C18.52 13.6801 18.4133 13.7067 18.32 13.7201C18.2 13.7467 16.3333 14.9868 12.6933 17.4401C12.16 17.8001 11.68 17.9868 11.2533 17.9734C10.7733 17.9601 9.86666 17.7068 9.18666 17.4801C8.34666 17.2134 7.69332 17.0668 7.74666 16.6001C7.77332 16.3601 8.10666 16.1201 8.73332 15.8668C12.6267 14.1734 15.2133 13.0534 16.5067 12.5201C20.2133 10.9734 20.9733 10.7067 21.48 10.7067C21.5867 10.7067 21.84 10.7334 22 10.8667C22.1333 10.9734 22.1733 11.1201 22.1867 11.2268C22.1733 11.3068 22.2 11.5468 22.1867 11.7334Z" fill="white"/>
	</symbol>
	<symbol id="social-vk" viewBox="0 0 32 32" >
	<path d="M16.36 2.99976C8.98138 2.99976 3 8.98114 3 16.3598C3 23.7384 8.98138 29.7198 16.36 29.7198C23.7386 29.7198 29.72 23.7384 29.72 16.3598C29.72 8.98114 23.7386 2.99976 16.36 2.99976ZM21.498 18.0729C21.498 18.0729 22.6796 19.2391 22.9704 19.7805C22.9788 19.7916 22.9829 19.8027 22.9857 19.8083C23.104 20.0073 23.1318 20.1618 23.0734 20.2773C22.976 20.4693 22.642 20.564 22.5279 20.5723H20.4404C20.2956 20.5723 19.9922 20.5348 19.6248 20.2815C19.3423 20.0839 19.064 19.7596 18.7926 19.4437C18.3877 18.9733 18.037 18.5669 17.6835 18.5669C17.6386 18.5669 17.594 18.5739 17.5513 18.5878C17.2841 18.6741 16.9417 19.0554 16.9417 20.0713C16.9417 20.3886 16.6912 20.5709 16.5145 20.5709H15.5584C15.2327 20.5709 13.5363 20.4568 12.0333 18.8717C10.1935 16.9303 8.53744 13.0365 8.52352 13.0003C8.41915 12.7484 8.63486 12.6134 8.87005 12.6134H10.9784C11.2595 12.6134 11.3514 12.7846 11.4154 12.9363C11.4906 13.113 11.7661 13.8158 12.2184 14.6063C12.9518 15.8949 13.4013 16.4182 13.7618 16.4182C13.8293 16.4174 13.8957 16.4002 13.9552 16.3681C14.4256 16.1065 14.3379 14.4295 14.317 14.0816C14.317 14.0162 14.3156 13.3315 14.0749 13.0031C13.9023 12.7651 13.6087 12.6746 13.4305 12.6412C13.5026 12.5417 13.5976 12.4611 13.7075 12.406C14.0303 12.2446 14.6121 12.2209 15.1896 12.2209H15.5111C16.1373 12.2293 16.2988 12.2696 16.5256 12.3267C16.9849 12.4366 16.9946 12.7331 16.9542 13.7476C16.9417 14.0357 16.9292 14.3613 16.9292 14.7454C16.9292 14.8289 16.925 14.918 16.925 15.0126C16.9111 15.5289 16.8944 16.1148 17.259 16.3556C17.3066 16.3854 17.3615 16.4013 17.4177 16.4015C17.5443 16.4015 17.9256 16.4015 18.9582 14.6299C19.2767 14.0597 19.5534 13.4671 19.7863 12.8569C19.8072 12.8207 19.8684 12.7094 19.9408 12.6663C19.9942 12.639 20.0534 12.6252 20.1133 12.6259H22.5919C22.8619 12.6259 23.047 12.6663 23.0817 12.7706C23.143 12.9363 23.0706 13.4414 21.9392 14.9737L21.434 15.6403C20.4084 16.9846 20.4084 17.0528 21.498 18.0729Z" fill="white"/>
	</symbol>
	<symbol id="social-pin" viewBox="0 0 32 32">
	<path d="M10.0533 26.7201C11.3333 27.1068 12.6267 27.3334 14 27.3334C17.5362 27.3334 20.9276 25.9287 23.4281 23.4282C25.9286 20.9277 27.3333 17.5363 27.3333 14.0001C27.3333 12.2491 26.9885 10.5153 26.3184 8.89764C25.6483 7.27996 24.6662 5.81011 23.4281 4.57199C22.19 3.33388 20.7201 2.35175 19.1025 1.68169C17.4848 1.01163 15.751 0.666748 14 0.666748C12.249 0.666748 10.5152 1.01163 8.89756 1.68169C7.27989 2.35175 5.81003 3.33388 4.57192 4.57199C2.07143 7.07248 0.666672 10.4639 0.666672 14.0001C0.666672 19.6668 4.22667 24.5334 9.25334 26.4534C9.13334 25.4134 9.01334 23.6934 9.25334 22.5068L10.7867 15.9201C10.7867 15.9201 10.4 15.1468 10.4 13.9201C10.4 12.0801 11.5467 10.7067 12.8533 10.7067C14 10.7067 14.5333 11.5468 14.5333 12.6268C14.5333 13.7734 13.7733 15.4134 13.3867 16.9868C13.16 18.2934 14.08 19.4401 15.4133 19.4401C17.7867 19.4401 19.6267 16.9068 19.6267 13.3334C19.6267 10.1334 17.3333 7.94675 14.04 7.94675C10.28 7.94675 8.06667 10.7468 8.06667 13.6934C8.06667 14.8401 8.44001 16.0001 9.05334 16.7601C9.17334 16.8401 9.17334 16.9468 9.13334 17.1468L8.74667 18.6001C8.74667 18.8268 8.60001 18.9068 8.37334 18.7468C6.66667 18.0001 5.68001 15.5734 5.68001 13.6134C5.68001 9.40008 8.66667 5.57342 14.4267 5.57342C19.0133 5.57342 22.5867 8.86675 22.5867 13.2401C22.5867 17.8268 19.7467 21.5068 15.68 21.5068C14.3867 21.5068 13.12 20.8134 12.6667 20.0001L11.7733 23.1601C11.4667 24.3068 10.6267 25.8401 10.0533 26.7601V26.7201Z" fill="white"/>
	</symbol>
	<symbol id="social-skype" viewBox="0 0 32 32">
	<path d="M24 8C26.76 10.72 27.8 14.52 27.1467 18.0667C27.6933 19.0267 28 20.1467 28 21.3333C28 23.1014 27.2976 24.7971 26.0474 26.0474C24.7971 27.2976 23.1014 28 21.3333 28C20.1467 28 19.0267 27.6933 18.0667 27.1467C14.52 27.8 10.72 26.76 8 24C5.24 21.28 4.2 17.48 4.85333 13.9333C4.30667 12.9733 4 11.8533 4 10.6667C4 8.89856 4.70238 7.20286 5.95262 5.95262C7.20286 4.70238 8.89856 4 10.6667 4C11.8533 4 12.9733 4.30667 13.9333 4.85333C17.48 4.2 21.28 5.24 24 8ZM16.0533 22.88C19.88 22.88 21.7867 21.04 21.7867 18.56C21.7867 16.9733 21.04 15.28 18.1467 14.6267L15.4933 14.04C14.48 13.8133 13.3333 13.5067 13.3333 12.56C13.3333 11.6 14.1333 10.9333 15.6 10.9333C18.5733 10.9333 18.2933 12.9733 19.7733 12.9733C20.5467 12.9733 21.2133 12.52 21.2133 11.7333C21.2133 9.90667 18.2933 8.53333 15.8133 8.53333C13.1333 8.53333 10.2667 9.68 10.2667 12.72C10.2667 14.1867 10.7867 15.7467 13.6667 16.4667L17.2533 17.3733C18.3333 17.64 18.6 18.24 18.6 18.8C18.6 19.7067 17.6933 20.6 16.0533 20.6C12.84 20.6 13.28 18.1333 11.56 18.1333C10.7867 18.1333 10.2267 18.6667 10.2267 19.4267C10.2267 20.9067 12 22.88 16.0533 22.88Z" fill="white"/>
	</symbol>
</svg>
